<?xml version="1.0" encoding="UTF-8"?>
<svg width="1000px" height="1000px" viewBox="0 0 1000 1000" version="1.1" xmlns="http://www.w3.org/2000/svg" xmlns:xlink="http://www.w3.org/1999/xlink">
    <title>Group</title>
    <g id="Page-1" stroke="none" stroke-width="1" fill="none" fill-rule="evenodd">
        <g id="Group">
            <path d="M173.255,171.46 C237.745,171.46 291.096,224.225 291.096,288.715 C291.096,352.033 237.159,406.557 173.255,406.557 C108.765,406.557 56,351.447 56,288.715 C56,224.225 108.765,171.46 173.255,171.46" id="Fill-1" fill="#E87F4F"></path>
            <path d="M697.161,178.087 C832.611,178.087 944.664,288.91 944.664,424.359 C944.664,557.346 831.379,671.863 697.161,671.863 C561.711,671.863 450.889,556.115 450.889,424.359 C450.889,288.91 561.711,178.087 697.161,178.087" id="Fill-2" fill="#E15F2B"></path>
            <path d="M295.455,660.7 C341.507,660.7 380.023,698.379 380.023,744.431 C380.023,789.646 341.507,829 295.455,829 C249.403,829 211.724,789.646 211.724,744.431 C211.724,698.379 249.403,660.7 295.455,660.7" id="Fill-3" fill="#F0AA74"></path>
        </g>
    </g>
</svg>